<?xml version="1.0" encoding="utf-8"?>
<!-- Generator: Adobe Illustrator 24.1.3, SVG Export Plug-In . SVG Version: 6.00 Build 0)  -->
<svg version="1.1" id="Camada_1" xmlns="http://www.w3.org/2000/svg" xmlns:xlink="http://www.w3.org/1999/xlink" x="0px" y="0px"
	 viewBox="0 0 54 54" style="enable-background:new 0 0 54 54;" xml:space="preserve">
<style type="text/css">
	.st0{opacity:0.5;fill:#E3E2E2;}
</style>
<circle class="st0" cx="27.7" cy="27.8" r="21.3"/>
<g>
	<g>
		<path d="M17.3,33.3c4.1-4.1,8.2-8.2,12.2-12.2c0.6-0.6,1.2-1.2,1.8-1.8c-0.2,0-0.4,0-0.5,0c1.3,1.3,2.7,2.7,4,4c0-0.2,0-0.4,0-0.5
			c-4.4,4.4-8.8,8.8-13.2,13.2c-0.2,0.2-0.5,0.6-0.7,0.7c-0.6,0.4-1.6,0.5-2.3,0.7c-1.2,0.4-2.4,0.8-3.6,1.2
			c0.1,0.2,0.3,0.3,0.5,0.5c0.7-2,1.3-4,2-6c0.1-0.5-0.6-0.7-0.7-0.2c-0.7,2-1.3,4-2,6c-0.1,0.3,0.2,0.5,0.5,0.5c1-0.3,2-0.7,3-1
			c1-0.3,2.2-0.5,3-1c0.2-0.1,0.3-0.3,0.5-0.5c1-1,2-2,2.9-2.9c2.9-2.9,5.7-5.7,8.5-8.5c0.7-0.7,1.4-1.4,2.2-2.2
			c0.1-0.1,0.1-0.4,0-0.5c-1.3-1.3-2.7-2.7-4-4c-0.1-0.1-0.4-0.1-0.5,0c-4.1,4.1-8.2,8.2-12.2,12.2c-0.6,0.6-1.2,1.2-1.8,1.8
			C16.4,33.1,16.9,33.6,17.3,33.3z"/>
	</g>
</g>
<g>
	<g>
		<path d="M31.3,19.3c0.9-1.1,2.3-1.8,3.8-1.4c1.2,0.4,1.4,1.7,1.1,2.7c-0.2,0.9-0.7,1.6-1.4,2.1c-0.2,0.1-0.1,0.4,0,0.5
			c0.2,0.2,0.4,0.1,0.5,0c1.3-1,2.1-2.9,1.6-4.6c-0.2-0.6-0.7-1.2-1.3-1.4c-0.7-0.3-1.5-0.3-2.3-0.2c-1,0.2-1.9,0.8-2.6,1.6
			c-0.1,0.2-0.1,0.4,0,0.5C30.9,19.4,31.1,19.4,31.3,19.3L31.3,19.3z"/>
	</g>
</g>
<g>
	<g>
		<path d="M17.1,33.4C17,33.4,17,33.4,17.1,33.4c0,0,0.1,0,0.2,0c0.2,0,0.3,0,0.5,0c0.4,0,0.8,0.1,1.2,0.3c0.5,0.3,0.9,0.7,1.2,1.1
			c0.2,0.4,0.4,0.9,0.4,1.3c0,0.2,0,0.4,0,0.6c0,0.1,0,0.1,0,0.2c0,0.1,0,0.1,0,0c0,0.2,0,0.4,0.3,0.5c0.2,0,0.4-0.1,0.5-0.3
			c0.1-0.8,0-1.7-0.4-2.5c-0.6-1.1-1.7-1.8-3-2c-0.4,0-0.7,0-1,0c-0.2,0-0.3,0.3-0.3,0.5C16.7,33.3,16.9,33.4,17.1,33.4L17.1,33.4z"
			/>
	</g>
</g>
</svg>
