<?xml version="1.0" encoding="utf-8"?>
<!-- Generator: Adobe Illustrator 24.1.3, SVG Export Plug-In . SVG Version: 6.00 Build 0)  -->
<svg version="1.1" id="Camada_1" xmlns="http://www.w3.org/2000/svg" xmlns:xlink="http://www.w3.org/1999/xlink" x="0px" y="0px"
	 viewBox="0 0 54 54" style="enable-background:new 0 0 54 54;" xml:space="preserve">
<style type="text/css">
	.st0{fill:#797979;}
</style>
<g>
	<g>
		<path class="st0" d="M15,27.67c8,0,16,0,24,0c1.61,0,1.61-2.5,0-2.5c-8,0-16,0-24,0C13.39,25.17,13.39,27.67,15,27.67L15,27.67z"
			/>
	</g>
</g>
<g>
	<g>
		<path class="st0" d="M15,17.21c8,0,16,0,24,0c1.61,0,1.61-2.5,0-2.5c-8,0-16,0-24,0C13.39,14.71,13.39,17.21,15,17.21L15,17.21z"
			/>
	</g>
</g>
<g>
	<g>
		<path class="st0" d="M15,38.75c8,0,16,0,24,0c1.61,0,1.61-2.5,0-2.5c-8,0-16,0-24,0C13.39,36.25,13.39,38.75,15,38.75L15,38.75z"
			/>
	</g>
</g>
</svg>
