<?xml version="1.0" encoding="utf-8"?>
<!-- Generator: Adobe Illustrator 24.1.3, SVG Export Plug-In . SVG Version: 6.00 Build 0)  -->
<svg version="1.1" id="Camada_2" xmlns="http://www.w3.org/2000/svg" xmlns:xlink="http://www.w3.org/1999/xlink" x="0px" y="0px"
	 viewBox="0 0 100 100" style="enable-background:new 0 0 100 100;" xml:space="preserve">
<style type="text/css">
	.st0{fill:none;stroke:#6D17B0;stroke-miterlimit:10;}
	.st1{fill:#FFFFFF;stroke:#6D17B0;stroke-miterlimit:10;}
	.st2{opacity:0.26;fill:#6D17B0;}
</style>
<path class="st0" d="M-51,84c-2.91,2.83-6.55,2.31-16,2c-16.08-0.52-20.18,0.52-23-3c-1.8-2.24-2.05-5.05-2-7
	c-2.33-18.71-4.67-37.43-7-56.14c0-3.23,2.62-5.86,5.86-5.86h46.29c3.23,0,5.86,2.62,5.86,5.86c-2.33,19.05-4.67,38.1-7,57.14
	C-48.19,78.98-48.82,81.88-51,84z"/>
<path class="st1" d="M-54.48,57.41L-54.48,57.41c-1.37-0.17-2.34-1.42-2.17-2.79l2.35-18.85c0.17-1.37,1.42-2.34,2.79-2.17h0
	c1.37,0.17,2.34,1.42,2.17,2.79l-2.35,18.85C-51.87,56.61-53.11,57.58-54.48,57.41z"/>
<path class="st1" d="M-55.99,67.47L-55.99,67.47c-1.1-0.14-1.87-1.14-1.74-2.23l0.49-3.97c0.14-1.1,1.14-1.87,2.23-1.74h0
	c1.1,0.14,1.87,1.14,1.74,2.23l-0.49,3.97C-53.9,66.83-54.9,67.61-55.99,67.47z"/>
<path class="st0" d="M69.18,84c-2.91,2.83-6.55,2.31-16,2c-16.08-0.52-20.17,0.52-23-3c-1.8-2.24-2.05-5.05-2-7
	c-2.33-18.71-4.67-37.43-7-56.14c0-3.23,2.62-5.86,5.86-5.86h46.29c3.23,0,5.86,2.62,5.86,5.86c-2.33,19.05-4.67,38.1-7,57.14
	C71.98,78.98,71.36,81.88,69.18,84z"/>
<path class="st2" d="M67,82c-0.99,1.4-3.13,1.47-4.5,1.5c-5.4,0.11-8.1,0.17-10,0C42.1,82.57,39.3,84.82,35,82
	c-1.76-1.16-2.87-2.57-3.5-3.5c-1-11.45-2-22.89-3-34.34c0-0.92,0.74-1.66,1.66-1.66c5.63-1.41,10.01-0.99,13.34,0
	c3.6,1.07,3.65,2.11,9,4c3.94,1.39,8.03,2.79,13,2c2.61-0.41,4.66-1.3,6-2c-3.09,20.14-4.28,30.39-4,33
	C67.53,79.81,67.7,81.02,67,82z"/>
<path class="st1" d="M65.69,57.41L65.69,57.41c-1.37-0.17-2.34-1.42-2.17-2.79l2.35-18.85c0.17-1.37,1.42-2.34,2.79-2.17h0
	c1.37,0.17,2.34,1.42,2.17,2.79l-2.35,18.85C68.31,56.61,67.06,57.58,65.69,57.41z"/>
<path class="st1" d="M64.18,67.47L64.18,67.47c-1.1-0.14-1.87-1.14-1.74-2.23l0.49-3.97c0.14-1.1,1.14-1.87,2.23-1.74h0
	c1.1,0.14,1.87,1.14,1.74,2.23l-0.49,3.97C66.28,66.83,65.28,67.61,64.18,67.47z"/>
</svg>
