<?xml version="1.0" encoding="utf-8"?>
<!-- Generator: Adobe Illustrator 24.1.3, SVG Export Plug-In . SVG Version: 6.00 Build 0)  -->
<svg version="1.1" id="Camada_1" xmlns="http://www.w3.org/2000/svg" xmlns:xlink="http://www.w3.org/1999/xlink" x="0px" y="0px"
	 viewBox="0 0 40 40" style="enable-background:new 0 0 40 40;" xml:space="preserve">
<style type="text/css">
	.st0{fill:#6D17B0;}
	.st1{fill:#FFFFFF;}
</style>
<g>
	<path class="st0" d="M6.27,18.01l0.01,1l26.5,0.32c0.17,0,0.29,0.09,0.34,0.14c0.05,0.05,0.14,0.17,0.14,0.34l-0.1,8.09
		c0,0.26-0.22,0.47-0.49,0.47l-26.5-0.32c-0.27,0-0.48-0.22-0.47-0.49l0.1-8.09c0-0.26,0.22-0.47,0.48-0.47L6.27,18.01 M6.27,18.01
		c-0.81,0-1.47,0.65-1.48,1.46l-0.1,8.09c-0.01,0.82,0.65,1.49,1.46,1.5l26.5,0.32c0.01,0,0.01,0,0.02,0c0.81,0,1.47-0.65,1.48-1.46
		l0.1-8.09c0.01-0.82-0.65-1.49-1.46-1.5l-26.5-0.32C6.28,18.01,6.28,18.01,6.27,18.01L6.27,18.01z"/>
</g>
<g>
	<line class="st1" x1="7.82" y1="22.94" x2="7.86" y2="19.26"/>
	<g>
		<path class="st0" d="M8.19,22.94c0.01-1.07,0.03-2.15,0.04-3.22c0-0.15,0-0.31,0.01-0.46c0.01-0.48-0.74-0.48-0.75,0
			c-0.01,1.07-0.03,2.15-0.04,3.22c0,0.15,0,0.31-0.01,0.46C7.44,23.42,8.19,23.42,8.19,22.94L8.19,22.94z"/>
	</g>
</g>
<g>
	<line class="st1" x1="9.63" y1="25.42" x2="9.71" y2="19.28"/>
	<g>
		<path class="st0" d="M10.01,25.42c0.02-1.79,0.04-3.58,0.06-5.37c0-0.26,0.01-0.51,0.01-0.77c0.01-0.48-0.74-0.48-0.75,0
			c-0.02,1.79-0.04,3.58-0.06,5.37c0,0.26-0.01,0.51-0.01,0.77C9.25,25.9,10,25.9,10.01,25.42L10.01,25.42z"/>
	</g>
</g>
<g>
	<line class="st1" x1="12.12" y1="22.99" x2="12.16" y2="19.31"/>
	<g>
		<path class="st0" d="M12.49,22.99c0.01-1.07,0.03-2.15,0.04-3.22c0-0.15,0-0.31,0.01-0.46c0.01-0.48-0.74-0.48-0.75,0
			c-0.01,1.07-0.03,2.15-0.04,3.22c0,0.15,0,0.31-0.01,0.46C11.74,23.47,12.49,23.47,12.49,22.99L12.49,22.99z"/>
	</g>
</g>
<g>
	<line class="st1" x1="14.54" y1="25.48" x2="14.62" y2="19.34"/>
	<g>
		<path class="st0" d="M14.92,25.48c0.02-1.79,0.04-3.58,0.06-5.37c0-0.26,0.01-0.51,0.01-0.77c0.01-0.48-0.74-0.48-0.75,0
			c-0.02,1.79-0.04,3.58-0.06,5.37c0,0.26-0.01,0.51-0.01,0.77C14.16,25.96,14.91,25.96,14.92,25.48L14.92,25.48z"/>
	</g>
</g>
<g>
	<line class="st1" x1="17.03" y1="23.05" x2="17.07" y2="19.37"/>
	<g>
		<path class="st0" d="M17.4,23.05c0.01-1.07,0.03-2.15,0.04-3.22c0-0.15,0-0.31,0.01-0.46c0.01-0.48-0.74-0.48-0.75,0
			c-0.01,1.07-0.03,2.15-0.04,3.22c0,0.15,0,0.31-0.01,0.46C16.65,23.53,17.4,23.53,17.4,23.05L17.4,23.05z"/>
	</g>
</g>
<g>
	<line class="st1" x1="19.45" y1="25.53" x2="19.53" y2="19.4"/>
	<g>
		<path class="st0" d="M19.83,25.53c0.02-1.79,0.04-3.58,0.06-5.37c0-0.26,0.01-0.51,0.01-0.77c0.01-0.48-0.74-0.48-0.75,0
			c-0.02,1.79-0.04,3.58-0.06,5.37c0,0.26-0.01,0.51-0.01,0.77C19.07,26.02,19.82,26.02,19.83,25.53L19.83,25.53z"/>
	</g>
</g>
<g>
	<line class="st1" x1="21.94" y1="23.11" x2="21.98" y2="19.43"/>
	<g>
		<path class="st0" d="M22.31,23.11c0.01-1.07,0.03-2.15,0.04-3.22c0-0.15,0-0.31,0.01-0.46c0.01-0.48-0.74-0.48-0.75,0
			c-0.01,1.07-0.03,2.15-0.04,3.22c0,0.15,0,0.31-0.01,0.46C21.56,23.59,22.31,23.59,22.31,23.11L22.31,23.11z"/>
	</g>
</g>
<g>
	<line class="st1" x1="24.36" y1="25.59" x2="24.44" y2="19.45"/>
	<g>
		<path class="st0" d="M24.74,25.59c0.02-1.79,0.04-3.58,0.06-5.37c0-0.26,0.01-0.51,0.01-0.77c0.01-0.48-0.74-0.48-0.75,0
			c-0.02,1.79-0.04,3.58-0.06,5.37c0,0.26-0.01,0.51-0.01,0.77C23.98,26.08,24.73,26.08,24.74,25.59L24.74,25.59z"/>
	</g>
</g>
<g>
	<line class="st1" x1="26.85" y1="23.17" x2="26.89" y2="19.48"/>
	<g>
		<path class="st0" d="M27.22,23.17c0.01-1.07,0.03-2.15,0.04-3.22c0-0.15,0-0.31,0.01-0.46c0.01-0.48-0.74-0.48-0.75,0
			c-0.01,1.07-0.03,2.15-0.04,3.22c0,0.15,0,0.31-0.01,0.46C26.47,23.65,27.22,23.65,27.22,23.17L27.22,23.17z"/>
	</g>
</g>
<g>
	<line class="st1" x1="29.27" y1="25.65" x2="29.35" y2="19.51"/>
	<g>
		<path class="st0" d="M29.65,25.65c0.02-1.79,0.04-3.58,0.06-5.37c0-0.26,0.01-0.51,0.01-0.77c0.01-0.48-0.74-0.48-0.75,0
			c-0.02,1.79-0.04,3.58-0.06,5.37c0,0.26-0.01,0.51-0.01,0.77C28.89,26.13,29.64,26.13,29.65,25.65L29.65,25.65z"/>
	</g>
</g>
<g>
	<line class="st1" x1="31.76" y1="23.23" x2="31.8" y2="19.54"/>
	<g>
		<path class="st0" d="M32.13,23.23c0.01-1.07,0.03-2.15,0.04-3.22c0-0.15,0-0.31,0.01-0.46c0.01-0.48-0.74-0.48-0.75,0
			c-0.01,1.07-0.03,2.15-0.04,3.22c0,0.15,0,0.31-0.01,0.46C31.38,23.71,32.13,23.71,32.13,23.23L32.13,23.23z"/>
	</g>
</g>
<g>
	<line class="st1" x1="34.41" y1="11.68" x2="4.95" y2="11.33"/>
	<g>
		<path class="st0" d="M34.41,11.31c-8.6-0.1-17.2-0.2-25.8-0.31c-1.22-0.01-2.44-0.03-3.66-0.04c-0.48-0.01-0.48,0.74,0,0.75
			c8.6,0.1,17.2,0.2,25.8,0.31c1.22,0.01,2.44,0.03,3.66,0.04C34.89,12.06,34.89,11.31,34.41,11.31L34.41,11.31z"/>
	</g>
</g>
</svg>
