<?xml version="1.0" encoding="utf-8"?>
<!-- Generator: Adobe Illustrator 24.1.3, SVG Export Plug-In . SVG Version: 6.00 Build 0)  -->
<svg version="1.1" id="Camada_1" xmlns="http://www.w3.org/2000/svg" xmlns:xlink="http://www.w3.org/1999/xlink" x="0px" y="0px"
	 viewBox="0 0 54 54" style="enable-background:new 0 0 54 54;" xml:space="preserve">
<style type="text/css">
	.st0{opacity:0.5;fill:#E3E2E2;}
</style>
<circle class="st0" cx="27.4" cy="26" r="21.3"/>
<g>
	<g>
		<path d="M21.8,41.4c2.7,0,5.4,0,8.1,0c0.9,0,2.1,0.2,3-0.1c1.1-0.4,1.5-1.3,1.6-2.4c0.6-5.9,1-11.8,1.5-17.7
			c0.2-1.9,0.5-4.5-2.2-4.6c-2.8-0.1-5.6,0-8.4,0c-1.4,0-2.8,0-4.2,0c-1.1,0-2.3,0.1-2.8,1.3c-0.3,0.7-0.2,1.5-0.2,2.2
			c0.1,1.3,0.2,2.5,0.2,3.7c0.2,3.8,0.5,7.6,0.7,11.4C19.4,37.4,18.9,41.2,21.8,41.4c0.5,0,0.5-0.7,0-0.8c-2.2-0.2-1.7-4-1.8-5.6
			c-0.2-3.1-0.4-6.2-0.6-9.3c-0.1-2.1-0.4-4.3-0.4-6.5c0-1.2,0.7-1.9,1.9-1.9c1.1,0,2.2,0,3.3,0c2.9,0,5.7,0,8.6,0
			c1.2,0,2.6,0,2.6,1.7c0,0.5-0.1,1.1-0.1,1.6c-0.5,5.6-0.9,11.2-1.4,16.8c0,0.6,0,1.4-0.2,2c-0.5,1.6-2.6,1.2-3.8,1.2
			c-2.7,0-5.4,0-8.1,0C21.3,40.6,21.3,41.4,21.8,41.4z"/>
	</g>
</g>
<g>
	<g>
		<path d="M18,16.6c-0.3,0-0.8,0.1-1.1,0c-0.7-0.2-0.5-0.8-0.5-1.3c0-0.7,0.2-0.9,0.8-0.9c1.2-0.2,2.5,0,3.7,0c4,0,8,0,12.1,0
			c1.3,0,2.6,0,3.9,0c0.5,0,0.7,0,0.8,0.6c0.1,0.6,0.1,1.4-0.5,1.6c-0.4,0.1-0.9,0-1.3,0c-0.8,0-1.5,0-2.3,0c-2,0-4,0-5.9,0
			C24.4,16.6,21.2,16.6,18,16.6c-0.5,0-0.5,0.8,0,0.8c3.3,0,6.6,0,9.9,0c2.2,0,4.5,0,6.7,0c0.9,0,2.2,0.3,3.1-0.1
			c0.9-0.4,0.8-1.6,0.7-2.4c0-0.7-0.4-1.2-1.2-1.2c-1.2-0.1-2.5,0-3.7,0c-4.5,0-9,0-13.5,0c-0.8,0-1.6,0-2.4,0
			c-0.4,0-0.9-0.1-1.2,0.1c-0.9,0.4-0.8,1.8-0.7,2.6c0.1,1.3,1.4,1.1,2.4,1.1C18.5,17.4,18.5,16.6,18,16.6z"/>
	</g>
</g>
<g>
	<g>
		<path d="M31.3,13.8c-0.3-0.7-0.7-1.3-1-2c-0.1-0.1-0.2-0.2-0.3-0.2c-2,0-4,0-6,0c-0.1,0-0.3,0.1-0.3,0.2c-0.3,0.7-0.7,1.3-1,2
			c-0.1,0.3,0,0.6,0.3,0.6c2.3,0,4.7,0,7,0c0.3,0,0.7,0,1,0c0.5,0,0.5-0.8,0-0.8c-2.3,0-4.7,0-7,0c-0.3,0-0.7,0-1,0
			c0.1,0.2,0.2,0.4,0.3,0.6c0.3-0.7,0.7-1.3,1-2c-0.1,0.1-0.2,0.1-0.3,0.2c2,0,4,0,6,0c-0.1-0.1-0.2-0.1-0.3-0.2
			c0.3,0.7,0.7,1.3,1,2C30.9,14.6,31.5,14.2,31.3,13.8z"/>
	</g>
</g>
<g>
	<g>
		<path d="M22.6,21c0,4.7,0,9.4,0,14c0,0.7,0,1.3,0,2c0,0.5,0.8,0.5,0.8,0c0-4.7,0-9.4,0-14c0-0.7,0-1.3,0-2
			C23.4,20.5,22.6,20.5,22.6,21L22.6,21z"/>
	</g>
</g>
<g>
	<g>
		<path d="M26.6,21c0,4.7,0,9.4,0,14c0,0.7,0,1.3,0,2c0,0.5,0.8,0.5,0.8,0c0-4.7,0-9.4,0-14c0-0.7,0-1.3,0-2
			C27.4,20.5,26.6,20.5,26.6,21L26.6,21z"/>
	</g>
</g>
<g>
	<g>
		<path d="M30.6,21c0,4.7,0,9.4,0,14c0,0.7,0,1.3,0,2c0,0.5,0.8,0.5,0.8,0c0-4.7,0-9.4,0-14c0-0.7,0-1.3,0-2
			C31.4,20.5,30.6,20.5,30.6,21L30.6,21z"/>
	</g>
</g>
</svg>
