<?xml version="1.0" encoding="utf-8"?>
<!-- Generator: Adobe Illustrator 24.1.3, SVG Export Plug-In . SVG Version: 6.00 Build 0)  -->
<svg version="1.1" id="Camada_1" xmlns="http://www.w3.org/2000/svg" xmlns:xlink="http://www.w3.org/1999/xlink" x="0px" y="0px"
	 viewBox="0 0 40 40" style="enable-background:new 0 0 40 40;" xml:space="preserve">
<style type="text/css">
	.st0{fill:none;stroke:#6D17B0;stroke-miterlimit:10;}
</style>
<path class="st0" d="M29.81,29H10.19C8.43,29,7,27.57,7,25.81V13.07c0-1.76,1.43-3.19,3.19-3.19h19.63c1.76,0,3.19,1.43,3.19,3.19
	v12.74C33,27.57,31.57,29,29.81,29z"/>
<path class="st0" d="M7.38,11.03c1.33,1.11,3.5,2.95,6.12,5.35c3.8,3.5,4.54,4.51,6.12,4.59c1.7,0.08,2.69-1.02,7.65-5.35
	c2.27-1.99,4.15-3.58,5.35-4.59"/>
<line class="st0" x1="8.15" y1="28.62" x2="18.03" y2="20.43"/>
<line class="st0" x1="31.94" y1="28.22" x2="22.06" y2="20.04"/>
</svg>
