<?xml version="1.0" encoding="utf-8"?>
<!-- Generator: Adobe Illustrator 24.1.3, SVG Export Plug-In . SVG Version: 6.00 Build 0)  -->
<svg version="1.1" id="Camada_1" xmlns="http://www.w3.org/2000/svg" xmlns:xlink="http://www.w3.org/1999/xlink" x="0px" y="0px"
	 viewBox="0 0 100 100" style="enable-background:new 0 0 100 100;" xml:space="preserve">
<style type="text/css">
	.st0{fill:none;stroke:#6D17B0;stroke-miterlimit:10;}
	.st1{fill:#6D17B0;}
</style>
<path class="st0" d="M50,28.5c-2.96,0-2.95,0-3,0c-4.51,0.05-9.76,4.78-10,5c-2.24,2.05-3.54,4.2-4,5c-0.06,0.11-0.56,0.98-1,2
	c-2.69,6.18-2.14,14.82-2,17c0.05,0.74,0.16,2.13,0,4c-0.1,1.2-0.19,1.18-0.49,3.57c-0.18,1.42-0.25,2.25-0.51,3.68
	c-0.27,1.47-0.48,2.15-1,2.75c-0.29,0.34-0.89,0.9-1,1c-0.51,0.47-0.7,0.61-1.11,1.02C25.4,74,25.16,74.24,25,74.5
	c-0.44,0.7-0.73,2.01,0,3c0.68,0.92,1.82,0.99,2,1h1h45c0.18-0.01,1.32-0.08,2-1c0.73-0.99,0.44-2.3,0-3
	c-0.16-0.26-0.4-0.5-0.89-0.98c-0.42-0.41-0.61-0.55-1.11-1.02c-0.11-0.1-0.71-0.66-1-1c-0.52-0.6-0.73-1.28-1-2.75
	c-0.26-1.44-0.34-2.27-0.51-3.68c-0.3-2.39-0.39-2.37-0.49-3.57c-0.16-1.87-0.05-3.26,0-4c0.14-2.18,0.69-10.82-2-17
	c-0.44-1.02-0.94-1.89-1-2c-1.3-2.28-2.83-3.93-4-5c-0.24-0.22-5.49-4.95-10-5C52.95,28.5,52.96,28.5,50,28.5z"/>
<path class="st0" d="M48,28.5c0.26-1.52,1.05-2.68,2-2.94c1.24-0.34,2.59,0.88,3,2.94H48z"/>
<path class="st0" d="M41.5,79c0.64,4.29,4.01,7.57,8,8c4.63,0.5,9.18-2.95,10-8"/>
<g>
	<g>
		<path class="st1" d="M39.31,24.68c-10.38,5.38-16.2,17.15-14.23,28.68c0.4,2.36,1.1,4.67,2.1,6.84c0.2,0.44,0.85,0.06,0.65-0.38
			c-5.05-10.97-1.78-24.19,7.6-31.7c1.33-1.06,2.76-2,4.27-2.79C40.12,25.1,39.74,24.45,39.31,24.68L39.31,24.68z"/>
	</g>
</g>
<g>
	<g>
		<path class="st1" d="M37.31,21.68c-4.78,2.32-8.97,5.89-11.95,10.3c-4.48,6.62-5.83,14.8-4.27,22.59
			c0.46,2.27,1.14,4.51,2.09,6.63c0.2,0.44,0.84,0.06,0.65-0.38c-2.12-4.72-2.97-10.12-2.52-15.26c0.67-7.69,4.61-14.76,10.6-19.57
			c1.78-1.43,3.73-2.66,5.78-3.65C38.12,22.11,37.74,21.47,37.31,21.68L37.31,21.68z"/>
	</g>
</g>
<g>
	<g>
		<path class="st1" d="M35.31,16.68c-4.81,2.35-9.1,5.92-12.39,10.12c-5.94,7.58-8.33,17.4-6.74,26.89c0.55,3.28,1.55,6.5,2.99,9.5
			c0.21,0.43,0.86,0.05,0.65-0.38c-3.31-6.89-4.26-14.96-2.57-22.42c1.81-7.97,6.6-14.96,13.13-19.81c1.67-1.24,3.44-2.35,5.3-3.26
			C36.12,17.11,35.74,16.46,35.31,16.68L35.31,16.68z"/>
	</g>
</g>
<g>
	<g>
		<path class="st1" d="M60.31,25.32C70.34,30.19,76.5,41.05,75.2,52.18c-0.3,2.61-0.98,5.21-2.03,7.63
			c-0.19,0.44,0.46,0.82,0.65,0.38c2.36-5.45,2.96-11.65,1.56-17.43c-1.48-6.13-5.18-11.5-10.19-15.29
			c-1.41-1.07-2.91-2.02-4.51-2.79C60.26,24.47,59.88,25.11,60.31,25.32L60.31,25.32z"/>
	</g>
</g>
<g>
	<g>
		<path class="st1" d="M62.31,21.32c11.2,5.77,18.16,17.92,17,30.54c-0.28,3.09-1.02,6.15-2.18,9.03c-0.18,0.45,0.55,0.64,0.72,0.2
			c2.68-6.69,3.09-14.29,1-21.2c-1.95-6.43-6.01-12.02-11.31-16.1c-1.53-1.18-3.15-2.24-4.87-3.12
			C62.26,20.46,61.88,21.1,62.31,21.32L62.31,21.32z"/>
	</g>
</g>
<g>
	<g>
		<path class="st1" d="M65.31,17.32C78,24.6,85.33,39.06,83.53,53.61c-0.39,3.18-1.2,6.31-2.39,9.29c-0.18,0.45,0.55,0.64,0.72,0.2
			c2.79-6.97,3.45-14.82,1.82-22.15c-1.76-7.91-6.19-15.03-12.35-20.28c-1.76-1.5-3.64-2.85-5.64-3.99
			C65.27,16.44,64.89,17.08,65.31,17.32L65.31,17.32z"/>
	</g>
</g>
</svg>
