<?xml version="1.0" encoding="utf-8"?>
<!-- Generator: Adobe Illustrator 24.1.3, SVG Export Plug-In . SVG Version: 6.00 Build 0)  -->
<svg version="1.1" id="Camada_1" xmlns="http://www.w3.org/2000/svg" xmlns:xlink="http://www.w3.org/1999/xlink" x="0px" y="0px"
	 viewBox="0 0 100 100" style="enable-background:new 0 0 100 100;" xml:space="preserve">
<style type="text/css">
	.st0{fill:none;stroke:#6D17B0;stroke-miterlimit:10;}
	.st1{fill:#FFFFFF;stroke:#6D17B0;stroke-miterlimit:10;}
</style>
<path class="st0" d="M69.35,83.5c-2.91,2.83-6.55,2.31-16,2c-16.08-0.52-20.17,0.52-23-3c-1.8-2.24-2.05-5.05-2-7
	c-2.33-18.71-4.67-37.43-7-56.14c0-3.23,2.62-5.86,5.86-5.86h46.29c3.23,0,5.86,2.62,5.86,5.86c-2.33,19.05-4.67,38.1-7,57.14
	C72.15,78.48,71.53,81.38,69.35,83.5z"/>
<path class="st1" d="M65.86,56.91L65.86,56.91c-1.37-0.17-2.34-1.42-2.17-2.79l2.35-18.85c0.17-1.37,1.42-2.34,2.79-2.17l0,0
	c1.37,0.17,2.34,1.42,2.17,2.79l-2.35,18.85C68.48,56.11,67.23,57.08,65.86,56.91z"/>
<path class="st1" d="M64.35,66.97L64.35,66.97c-1.1-0.14-1.87-1.14-1.74-2.23l0.49-3.97c0.14-1.1,1.14-1.87,2.23-1.74h0
	c1.1,0.14,1.87,1.14,1.74,2.23l-0.49,3.97C66.45,66.33,65.45,67.11,64.35,66.97z"/>
</svg>
