<?xml version="1.0" encoding="utf-8"?>
<!-- Generator: Adobe Illustrator 24.1.3, SVG Export Plug-In . SVG Version: 6.00 Build 0)  -->
<svg version="1.1" id="Camada_1" xmlns="http://www.w3.org/2000/svg" xmlns:xlink="http://www.w3.org/1999/xlink" x="0px" y="0px"
	 viewBox="0 0 40 40" style="enable-background:new 0 0 40 40;" xml:space="preserve">
<style type="text/css">
	.st0{opacity:0.8;}
	.st1{fill:#6D17B0;}
	.st2{fill:#FFFFFF;}
</style>
<g class="st0">
	<path class="st1" d="M10.65,27.5c-3.94,0-7.15-3.21-7.15-7.15c0-3.94,3.21-7.15,7.15-7.15h18.7c3.94,0,7.15,3.21,7.15,7.15
		c0,3.94-3.21,7.15-7.15,7.15H10.65z"/>
	<path class="st1" d="M29.35,13.7c3.67,0,6.65,2.98,6.65,6.65c0,3.67-2.98,6.65-6.65,6.65h-18.7C6.98,27,4,24.02,4,20.35
		c0-3.67,2.98-6.65,6.65-6.65H29.35 M29.35,12.7h-18.7C6.43,12.7,3,16.13,3,20.35v0C3,24.57,6.43,28,10.65,28h18.7
		c4.22,0,7.65-3.43,7.65-7.65v0C37,16.13,33.57,12.7,29.35,12.7L29.35,12.7z"/>
</g>
<g>
	<path class="st2" d="M29.65,25.8c-3,0-5.45-2.44-5.45-5.45s2.44-5.45,5.45-5.45c3.01,0,5.45,2.44,5.45,5.45S32.66,25.8,29.65,25.8z
		"/>
	<path class="st2" d="M29.65,15.4c2.73,0,4.95,2.22,4.95,4.95s-2.22,4.95-4.95,4.95s-4.95-2.22-4.95-4.95S26.92,15.4,29.65,15.4
		 M29.65,14.4c-3.29,0-5.95,2.66-5.95,5.95c0,3.29,2.66,5.95,5.95,5.95s5.95-2.66,5.95-5.95C35.6,17.06,32.94,14.4,29.65,14.4
		L29.65,14.4z"/>
</g>
</svg>
