<?xml version="1.0" encoding="utf-8"?>
<!-- Generator: Adobe Illustrator 24.1.3, SVG Export Plug-In . SVG Version: 6.00 Build 0)  -->
<svg version="1.1" id="Camada_1" xmlns="http://www.w3.org/2000/svg" xmlns:xlink="http://www.w3.org/1999/xlink" x="0px" y="0px"
	 viewBox="0 0 40 40" style="enable-background:new 0 0 40 40;" xml:space="preserve">
<style type="text/css">
	.st0{fill:none;stroke:#6D17B0;stroke-miterlimit:10;}
</style>
<path class="st0" d="M28,33H12c-2.76,0-5-2.24-5-5V11.16c0-2.76,2.24-5,5-5h16c2.76,0,5,2.24,5,5V28C33,30.76,30.76,33,28,33z"/>
<path class="st0" d="M10.77,13.29l4.19-4.19c0.19,0.25,1.95,2.52,5.03,2.52s4.84-2.27,5.03-2.52c1.4,1.4,2.8,2.8,4.19,4.19
	c-0.58,0.66-3.51,3.86-8.39,4.19C14.97,17.88,11.22,13.79,10.77,13.29z"/>
<line class="st0" x1="17.48" y1="10.77" x2="15.81" y2="13.29"/>
</svg>
