<?xml version="1.0" encoding="utf-8"?>
<!-- Generator: Adobe Illustrator 24.1.3, SVG Export Plug-In . SVG Version: 6.00 Build 0)  -->
<svg version="1.1" id="Camada_1" xmlns="http://www.w3.org/2000/svg" xmlns:xlink="http://www.w3.org/1999/xlink" x="0px" y="0px"
	 viewBox="0 0 30 30" style="enable-background:new 0 0 30 30;" xml:space="preserve">
<style type="text/css">
	.st0{fill:#FEEE36;}
	.st1{fill:#6D17B0;}
</style>
<g>
	<path class="st0" d="M8.7,14.41c0.14,0.5,0.41,1.21,1.02,1.79c2.39,2.26,7.19-0.02,7.67-0.26c1.09-0.53,3.94-1.93,4.09-4.35
		c0.05-0.84-0.24-1.56-0.51-2.04c0.32,0.18,0.84,0.53,1.15,1.15c0.51,1.01,0.16,2.08,0,2.56c-1.11,3.36-6.18,4.81-8.69,5.11
		c-1.43,0.17-2.45,0.03-3.32-0.51c-0.65-0.4-1.05-0.92-1.28-1.28c-0.09-0.19-0.2-0.45-0.26-0.77C8.46,15.19,8.6,14.68,8.7,14.41z"/>
	<path class="st1" d="M8.95,10.58c0.15,0.47,0.49,1.31,1.28,2.04c1.52,1.42,3.47,1.31,3.83,1.28c-0.26,0.24-0.52,0.49-0.77,0.77
		c-2.53,2.82-2.85,6.5-2.81,8.69c0.15-0.58,0.39-1.38,0.77-2.3c0.31-0.75,0.81-1.96,1.79-3.32c0.4-0.55,0.98-1.28,1.79-2.04
		c-0.01,0.16-0.01,0.43,0,0.77c0.04,1.49,0.1,4.13,1.79,6.13c0.15,0.18,0.4,0.46,0.77,0.77c-0.06-0.17-0.15-0.44-0.26-0.77
		c-0.45-1.46-1.3-4.28-0.77-7.67c0.12-0.78,0.27-1.69,0.77-2.81c0.67-1.5,1.62-2.54,2.56-3.58c0.6-0.66,1.14-1.18,1.53-1.53
		c-0.29,0.09-0.75,0.25-1.28,0.51c-0.3,0.15-0.98,0.51-2.81,2.04c-0.99,0.83-1,0.9-1.53,1.28c-0.6,0.42-0.76,0.46-1.53,1.02
		c-0.46,0.34-0.55,0.43-0.77,0.51c-0.63,0.24-1.31-0.01-1.79-0.26c-0.32-0.14-0.67-0.31-1.02-0.51C9.89,11.27,9.38,10.91,8.95,10.58
		z"/>
	<circle class="st1" cx="14.06" cy="9.3" r="1.66"/>
</g>
</svg>
