<?xml version="1.0" encoding="utf-8"?>
<!-- Generator: Adobe Illustrator 24.1.3, SVG Export Plug-In . SVG Version: 6.00 Build 0)  -->
<svg version="1.1" id="Camada_2" xmlns="http://www.w3.org/2000/svg" xmlns:xlink="http://www.w3.org/1999/xlink" x="0px" y="0px"
	 viewBox="0 0 100 100" style="enable-background:new 0 0 100 100;" xml:space="preserve">
<style type="text/css">
	.st0{fill:#FEEE36;}
	.st1{fill:#6D17B0;}
</style>
<path class="st0" d="M24.5,47.5c0.53,1.96,1.61,4.73,4,7c9.34,8.86,28.13-0.08,30-1c4.26-2.09,15.41-7.56,16-17
	c0.21-3.29-0.93-6.09-2-8c1.24,0.69,3.27,2.06,4.5,4.5c2,3.95,0.62,8.13,0,10c-4.35,13.13-24.16,18.8-34,20
	c-5.59,0.68-9.59,0.12-13-2c-2.54-1.58-4.11-3.61-5-5c-0.37-0.74-0.78-1.75-1-3C23.58,50.55,24.13,48.54,24.5,47.5z"/>
<path class="st1" d="M25.5,32.5c0.59,1.85,1.93,5.13,5,8c5.94,5.57,13.56,5.11,15,5c-1.03,0.92-2.03,1.92-3,3
	c-9.89,11.05-11.15,25.42-11,34c0.59-2.28,1.53-5.4,3-9c1.2-2.94,3.17-7.67,7-13c1.55-2.15,3.83-5,7-8c-0.02,0.61-0.03,1.68,0,3
	c0.15,5.84,0.41,16.15,7,24c0.58,0.7,1.57,1.8,3,3c-0.24-0.67-0.6-1.71-1-3c-1.78-5.71-5.09-16.76-3-30c0.48-3.04,1.05-6.63,3-11
	c2.62-5.87,6.32-9.94,10-14c2.35-2.59,4.46-4.6,6-6c-1.14,0.35-2.93,0.97-5,2c-1.19,0.59-3.83,1.99-11,8c-3.88,3.25-3.93,3.53-6,5
	c-2.34,1.66-2.99,1.8-6,4c-1.81,1.32-2.14,1.68-3,2c-2.48,0.93-5.13-0.03-7-1c-1.27-0.56-2.61-1.22-4-2
	C29.17,35.19,27.17,33.81,25.5,32.5z"/>
<circle class="st1" cx="45.5" cy="27.5" r="6.5"/>
</svg>
